Coordinates
version=1
nRows=14
nColumns=28
inDegrees=yes

Units are S.I. units (second, meters, Newtons, ...)
Angles are in degrees.

endheader
time	pelvis_tilt	pelvis_list	pelvis_rotation	pelvis_tx	pelvis_ty	pelvis_tz	hip_flexion_r	hip_adduction_r	hip_rotation_r	knee_angle_r	ankle_angle_r	subtalar_angle_r	mtp_angle_r	hip_flexion_l	hip_adduction_l	hip_rotation_l	knee_angle_l	socket_flexion	socket_adduction	socket_rotation	socket_tx	socket_ty	socket_tz	foot_flex	lumbar_extension	lumbar_bending	lumbar_rotation
      0.54583333	     -1.16893330	     -4.11907047	     11.74799526	     -0.03989012	      0.96181039	      0.21061695	     26.84540731	      3.52263976	     -7.19106847	    -11.48868112	      6.28491006	    -18.47207972	     -1.81536208	    -17.10577707	     -5.49689077	     26.32028468	    -12.04562531	      0.00000000	      0.00000000	      0.00000000	      0.00000000	     -0.00111023	      0.00000000	      9.37585051	     -6.68794055	      5.04310847	    -19.91347618
      0.55000000	     -1.17740272	     -4.08021795	     11.72719370	     -0.03992096	      0.96180375	      0.21064444	     26.87433801	      3.48087109	     -7.20003461	    -11.53969682	      6.38528979	    -18.31198014	     -1.62632764	    -17.09837980	     -5.44334585	     26.31908568	    -12.06034337	      0.00000000	      0.00000000	      0.00000000	      0.00000000	     -0.00106730	      0.00000000	      9.36026945	     -6.69670404	      4.99509268	    -19.81404830
      0.55416667	     -1.05618115	     -4.16837448	     11.84030779	     -0.03354354	      0.96070380	      0.20988544	     26.96929092	      3.61170322	     -7.03187931	    -12.33313648	      6.05862552	    -18.28036700	     -1.61266260	    -17.32023546	     -5.49655340	     26.39224976	    -12.59757924	      0.00000000	      0.00000000	      0.00000000	      0.00000000	     -0.00104511	      0.00000000	      9.33239616	     -6.75630190	      5.28144051	    -19.85044005
      0.55833333	     -0.94003014	     -4.11033093	     11.74497189	     -0.02709622	      0.95956098	      0.20954949	     27.30507835	      3.60582946	     -7.19155229	    -13.62057487	      5.35900014	    -18.39485965	     -1.43823529	    -17.59644621	     -5.34114747	     26.18882012	    -13.13183383	      0.00000000	      0.00000000	      0.00000000	      0.00000000	     -0.00076981	      0.00000000	      9.35531221	     -6.84728928	      5.35205318	    -19.96656059
      0.56250000	     -0.83685636	     -4.19582616	     11.81944301	     -0.02068782	      0.95849250	      0.20884082	     27.41977633	      3.74235981	     -6.98204422	    -14.44358801	      5.02571500	    -18.33826930	     -1.37392937	    -17.74616363	     -5.35273648	     26.24826318	    -13.77503851	      0.00000000	      0.00000000	      0.00000000	      0.00000000	     -0.00071937	      0.00000000	      9.26610285	     -6.88858814	      5.62441534	    -19.96906179
      0.56666667	     -0.72070505	     -4.25313900	     11.81223353	     -0.01426602	      0.95742224	      0.20821801	     27.61382544	      3.84876670	     -6.87460992	    -15.45938456	      4.55533560	    -18.28990650	     -1.30273095	    -17.90900996	     -5.30103304	     26.17576413	    -14.45104839	      0.00000000	      0.00000000	      0.00000000	      0.00000000	     -0.00060646	      0.00000000	      9.17626690	     -6.95224889	      5.86405742	    -19.98556022
      0.57083333	     -1.34030979	     -3.83190531	     11.32297338	     -0.00796127	      0.95529106	      0.20856316	     28.94543008	      3.45255224	     -6.56043003	    -17.25774945	      3.65666926	    -18.47049121	      0.82828771	    -17.32005433	     -4.44275912	     25.80278738	    -15.33439232	      0.00000000	      0.00000000	      0.00000000	      0.00000000	     -0.00004037	      0.00000000	      9.14640899	     -6.32771879	      5.27848773	    -19.51580799
      0.57500000	     -1.17538077	     -3.91651849	     11.23699561	     -0.00132775	      0.95427927	      0.20807471	     29.11112208	      3.58913850	     -6.60421081	    -18.33249820	      3.02134873	    -18.37049176	      1.08618804	    -17.54107875	     -4.40912657	     25.59341825	    -16.01152600	      0.00000000	      0.00000000	      0.00000000	      0.00000000	      0.00004445	      0.00000000	      8.98767181	     -6.41452986	      5.56153465	    -19.58085691
      0.57916667	     -1.04367205	     -4.02868112	     11.30939052	      0.00530042	      0.95347782	      0.20732860	     29.12456392	      3.74750320	     -6.39146937	    -19.09432795	      2.74073680	    -18.27101323	      1.16430547	    -17.61109038	     -4.40962573	     25.58506968	    -16.82971562	      0.00000000	      0.00000000	      0.00000000	      0.00000000	      0.00024760	      0.00000000	      8.71461716	     -6.44957650	      5.87265503	    -19.56061872
      0.58333333	     -1.25671045	     -3.78297843	     11.00100368	      0.01178450	      0.95195282	      0.20717964	     29.92439649	      3.43204420	     -6.58421871	    -20.66123488	      1.55711884	    -18.13390929	      5.94137163	    -17.35221740	     -3.83755417	     25.26368068	    -17.78553201	      0.00000000	      0.00000000	      0.00000000	      0.00000000	      0.00066987	      0.00000000	      8.53797803	     -6.21451185	      5.64124038	    -19.37392152
      0.58750000	     -1.09584469	     -3.89931036	     10.98733925	      0.01842035	      0.95122117	      0.20658628	     29.95251444	      3.60381785	     -6.45303269	    -21.51379192	      1.24349151	    -18.03097928	      5.95029280	    -17.40059700	     -3.80789344	     25.10336598	    -18.70568661	      0.00000000	      0.00000000	      0.00000000	      0.00000000	      0.00086509	      0.00000000	      8.19992276	     -6.29802808	      5.95595132	    -19.34764807
      0.59166667	     -0.97000289	     -3.85752204	     10.73723031	      0.02515997	      0.95035486	      0.20638550	     30.18646636	      3.64154457	     -6.40839984	    -22.73025218	      0.70441746	    -17.81689101	      6.04580281	    -17.47086424	     -3.54885661	     24.63034450	    -19.61250096	      0.00000000	      0.00000000	      0.00000000	      0.00000000	      0.00127016	      0.00000000	      7.90481929	     -6.37262395	      6.04338797	    -19.23855584
      0.59583333	     -1.20544882	     -3.69839751	     10.41870495	      0.03175470	      0.94903824	      0.20625764	     30.83141560	      3.53110878	     -6.11307294	    -24.04490815	      0.58169501	    -17.27397410	      6.89295645	    -17.05197458	     -3.03963667	     24.20569705	    -20.73601863	      0.00000000	      0.00000000	      0.00000000	      0.00000000	      0.00173057	      0.00000000	      7.51269067	     -6.08930582	      5.89708187	    -18.68611948
      0.60000000	     -1.02539561	     -3.83181755	     10.42391922	      0.03850053	      0.94855757	      0.20563322	     30.76210221	      3.69808384	     -6.03069440	    -24.81307863	      0.38190447	    -17.18338213	      6.92793593	    -16.99378318	     -3.01226098	     23.94908265	    -21.82726459	      0.00000000	      0.00000000	      0.00000000	      0.00000000	      0.00206258	      0.00000000	      7.03450456	     -6.16950402	      6.23046461	    -18.67311771
